<?xml version="1.0" encoding="utf-8"?>
<!-- Generator: Adobe Illustrator 24.1.3, SVG Export Plug-In . SVG Version: 6.00 Build 0)  -->
<svg version="1.1" id="Capa_1" xmlns="http://www.w3.org/2000/svg" xmlns:xlink="http://www.w3.org/1999/xlink" x="0px" y="0px"
	 viewBox="0 0 512 512" style="enable-background:new 0 0 512 512;" xml:space="preserve">
<path d="M303.6,47.9v95.2c-27.6,0-67.6,0-95.2,0V47.9H303.6 M489.5,368.9v95.2h-95.2v-95.2C421.9,368.9,461.9,368.9,489.5,368.9
	 M303.6,368.9v95.2h-95.2v-95.2C236.1,368.9,276,368.9,303.6,368.9 M117.7,368.9v95.2H22.5v-95.2C50.2,368.9,90.1,368.9,117.7,368.9
	 M308.6,27.9H203.4c-8.3,0-15,6.7-15,15v105.2c0,8.3,6.7,15,15,15h44.1v84.5H61.7v101.4H17.5c-8.3,0-15,6.7-15,15v105.2
	c0,8.3,6.7,15,15,15h105.2c8.3,0,15-6.7,15-15V363.9c0-8.3-6.7-15-15-15H78.6v-84.5h169v84.5h-44.1c-8.3,0-15,6.7-15,15v105.2
	c0,8.3,6.7,15,15,15h105.2c8.3,0,15-6.7,15-15V363.9c0-8.3-6.7-15-15-15h-44.1v-84.5h169v84.5h-44.1c-8.3,0-15,6.7-15,15v105.2
	c0,8.3,6.7,15,15,15h105.2c8.3,0,15-6.7,15-15V363.9c0-8.3-6.7-15-15-15h-44.1V247.6H264.4v-84.5h44.1c8.3,0,15-6.7,15-15V42.9
	C323.6,34.6,316.9,27.9,308.6,27.9L308.6,27.9z"/>
</svg>
